{
  "accessors": [
    {
      "bufferView": 2,
      "componentType": 5126,
      "count": 12098,
      "max": [
        0.99034583568572998,
        3.4169623851776123,
        1.0974795818328857
      ],
      "min": [
        -0.90329194068908691,
        9.1170892119407654e-05,
        -0.58388888835906982
      ],
      "type": "VEC3"
    },
    {
      "bufferView": 2,
      "byteOffset": 145176,
      "componentType": 5126,
      "count": 12098,
      "max": [
        0.99989062547683716,
        0.99982845783233643,
        0.99986648559570312
      ],
      "min": [
        -0.99989801645278931,
        -1,
        -0.99994087219238281
      ],
      "type": "VEC3"
    },
    {
      "bufferView": 1,
      "componentType": 5126,
      "count": 12098,
      "max": [
        0.99434554576873779,
        0.99258822202682495
      ],
      "min": [
        0.006698118057101965,
        0.0056595802307128906
      ],
      "type": "VEC2"
    },
    {
      "bufferView": 1,
      "byteOffset": 96784,
      "componentType": 5126,
      "count": 12098,
      "max": [
        0.99434554576873779,
        0.99258822202682495
      ],
      "min": [
        0.006698118057101965,
        0.0056595802307128906
      ],
      "type": "VEC2"
    },
    {
      "bufferView": 1,
      "byteOffset": 193568,
      "componentType": 5126,
      "count": 12098,
      "max": [
        0.99434554576873779,
        0.99258822202682495
      ],
      "min": [
        0.006698118057101965,
        0.0056595802307128906
      ],
      "type": "VEC2"
    },
    {
      "bufferView": 0,
      "componentType": 5125,
      "count": 59280,
      "max": [
        12097
      ],
      "min": [
        0
      ],
      "type": "SCALAR"
    }
  ],
  "asset": {
    "extras": {
      "author": "fakepad (https://sketchfab.com/fakepad)",
      "license": "CC-BY-4.0 (http://creativecommons.org/licenses/by/4.0/)",
      "source": "https://sketchfab.com/3d-models/rose-fb1243f2843a4ba58ffae952b8275b91",
      "title": "Rose"
    },
    "generator": "Sketchfab-10.11.0",
    "version": "2.0"
  },
  "bufferViews": [
    {
      "buffer": 0,
      "byteLength": 237120,
      "byteOffset": 0,
      "name": "floatBufferViews",
      "target": 34963
    },
    {
      "buffer": 0,
      "byteLength": 290352,
      "byteOffset": 237120,
      "byteStride": 8,
      "name": "floatBufferViews",
      "target": 34962
    },
    {
      "buffer": 0,
      "byteLength": 290352,
      "byteOffset": 527472,
      "byteStride": 12,
      "name": "floatBufferViews",
      "target": 34962
    }
  ],
  "buffers": [
    {
      "byteLength": 817824,
      "uri": "scene.bin"
    }
  ],
  "extensionsRequired": [
    "KHR_materials_pbrSpecularGlossiness"
  ],
  "extensionsUsed": [
    "KHR_materials_pbrSpecularGlossiness"
  ],
  "images": [
    {
      "uri": "textures/material_diffuse.png"
    },
    {
      "uri": "textures/material_specularGlossiness.png"
    }
  ],
  "materials": [
    {
      "doubleSided": true,
      "emissiveFactor": [
        0,
        0,
        0
      ],
      "extensions": {
        "KHR_materials_pbrSpecularGlossiness": {
          "diffuseFactor": [
            1,
            1,
            1,
            1
          ],
          "diffuseTexture": {
            "index": 0,
            "texCoord": 0
          },
          "glossinessFactor": 1,
          "specularFactor": [
            1,
            1,
            1
          ],
          "specularGlossinessTexture": {
            "index": 1,
            "texCoord": 0
          }
        }
      },
      "name": "material"
    }
  ],
  "meshes": [
    {
      "primitives": [
        {
          "attributes": {
            "NORMAL": 1,
            "POSITION": 0,
            "TEXCOORD_0": 2,
            "TEXCOORD_1": 3,
            "TEXCOORD_2": 4
          },
          "indices": 5,
          "material": 0,
          "mode": 4
        }
      ]
    }
  ],
  "nodes": [
    {
      "children": [
        1
      ],
      "name": "RootNode (gltf orientation matrix)",
      "rotation": [
        -0.70710678118654746,
        -0,
        -0,
        0.70710678118654757
      ]
    },
    {
      "children": [
        2
      ],
      "name": "RootNode (model correction matrix)"
    },
    {
      "children": [
        3
      ],
      "name": "root"
    },
    {
      "children": [
        4
      ],
      "matrix": [
        1,
        0,
        0,
        0,
        0,
        2.2204460492503131e-16,
        1,
        0,
        0,
        -1,
        2.2204460492503131e-16,
        0,
        0,
        0,
        0,
        1
      ],
      "name": "GLTF_SceneRootNode"
    },
    {
      "children": [
        5
      ],
      "name": "root_0"
    },
    {
      "children": [
        6
      ],
      "matrix": [
        0.14557705684665073,
        -0.0023627013931745845,
        0.013731672751971905,
        0,
        2.6259078284190739e-12,
        0.14412452444446153,
        0.024798378206645048,
        0,
        -0.013933460199500747,
        -0.024685564102786921,
        0.14346886547768942,
        0,
        -0.0039472281932830811,
        -0.23384511470794678,
        0.17988564074039459,
        1
      ],
      "name": "node_id30_1"
    },
    {
      "mesh": 0,
      "name": ""
    }
  ],
  "samplers": [
    {
      "magFilter": 9729,
      "minFilter": 9987,
      "wrapS": 10497,
      "wrapT": 10497
    }
  ],
  "scene": 0,
  "scenes": [
    {
      "name": "OSG_Scene",
      "nodes": [
        0
      ]
    }
  ],
  "textures": [
    {
      "sampler": 0,
      "source": 0
    },
    {
      "sampler": 0,
      "source": 1
    }
  ]
}

